<svg xmlns="http://www.w3.org/2000/svg" viewBox="0 0 1024 1024">
  <defs>
    <linearGradient id="bgGrad" x1="0%" y1="0%" x2="100%" y2="100%">
      <stop offset="0%" style="stop-color:#6366f1"/>
      <stop offset="50%" style="stop-color:#4f46e5"/>
      <stop offset="100%" style="stop-color:#3730a3"/>
    </linearGradient>
    <linearGradient id="goldGrad" x1="0%" y1="0%" x2="100%" y2="100%">
      <stop offset="0%" style="stop-color:#fef3c7"/>
      <stop offset="50%" style="stop-color:#fcd34d"/>
      <stop offset="100%" style="stop-color:#f59e0b"/>
    </linearGradient>
    <filter id="glow">
      <feGaussianBlur stdDeviation="8" result="coloredBlur"/>
      <feMerge>
        <feMergeNode in="coloredBlur"/>
        <feMergeNode in="SourceGraphic"/>
      </feMerge>
    </filter>
  </defs>
  
  <circle cx="512" cy="512" r="480" fill="url(#bgGrad)"/>
  
  <circle cx="512" cy="512" r="460" fill="none" stroke="#fef3c7" stroke-width="3" opacity="0.4" filter="url(#glow)"/>
  <circle cx="512" cy="512" r="420" fill="none" stroke="#fcd34d" stroke-width="2" opacity="0.3"/>
  
  <circle cx="512" cy="512" r="280" fill="rgba(254,243,199,0.1)"/>
  
  <path d="M512 750 Q505 650 512 550 Q518 450 512 380" stroke="url(#goldGrad)" stroke-width="28" fill="none" stroke-linecap="round"/>
  <path d="M512 750 Q518 650 512 550 Q508 450 512 380" stroke="#fef3c7" stroke-width="14" fill="none" stroke-linecap="round"/>
  
  <path d="M512 600 Q420 520 320 400" stroke="url(#goldGrad)" stroke-width="20" fill="none" stroke-linecap="round"/>
  <path d="M512 600 Q430 520 330 400" stroke="#fef3c7" stroke-width="10" fill="none" stroke-linecap="round"/>
  
  <path d="M512 600 Q600 520 700 400" stroke="url(#goldGrad)" stroke-width="20" fill="none" stroke-linecap="round"/>
  <path d="M512 600 Q590 520 690 400" stroke="#fef3c7" stroke-width="10" fill="none" stroke-linecap="round"/>
  
  <path d="M512 450 Q512 350 512 280" stroke="url(#goldGrad)" stroke-width="18" fill="none" stroke-linecap="round"/>
  <path d="M512 450 Q512 350 512 280" stroke="#fef3c7" stroke-width="9" fill="none" stroke-linecap="round"/>
  
  <circle cx="320" cy="400" r="40" fill="#fef3c7" opacity="0.9" filter="url(#glow)"/>
  <text x="320" y="418" font-family="Arial" font-size="26" fill="#3730a3" text-anchor="middle" font-weight="bold">∑</text>
  
  <circle cx="700" cy="400" r="40" fill="#fef3c7" opacity="0.9" filter="url(#glow)"/>
  <text x="700" y="418" font-family="Arial" font-size="26" fill="#3730a3" text-anchor="middle" font-weight="bold">√</text>
  
  <circle cx="512" cy="280" r="45" fill="#fef3c7" opacity="0.95" filter="url(#glow)"/>
  <text x="512" y="302" font-family="Arial" font-size="32" fill="#3730a3" text-anchor="middle" font-weight="bold">π</text>
  
  <ellipse cx="512" cy="780" rx="100" ry="20" fill="#fcd34d" opacity="0.7"/>
  
  <circle cx="200" cy="300" r="10" fill="#fef3c7" opacity="0.9" filter="url(#glow)"/>
  <circle cx="820" cy="350" r="8" fill="#fef3c7" opacity="0.8" filter="url(#glow)"/>
  <circle cx="250" cy="550" r="6" fill="#fcd34d" opacity="0.7" filter="url(#glow)"/>
  <circle cx="770" cy="500" r="8" fill="#fcd34d" opacity="0.7" filter="url(#glow)"/>
  <circle cx="350" cy="650" r="6" fill="#fcd34d" opacity="0.6" filter="url(#glow)"/>
  <circle cx="670" cy="630" r="7" fill="#fcd34d" opacity="0.6" filter="url(#glow)"/>
  
  <path d="M512 220 Q580 260 560 340 Q540 420 512 460 Q484 420 464 340 Q444 260 512 220" fill="none" stroke="#fcd34d" stroke-width="3" opacity="0.4"/>
</svg>
